<svg width="571" height="776" viewBox="0 0 571 776" fill="none" xmlns="http://www.w3.org/2000/svg">
<g filter="url(#filter0_f_2341_3111)">
<path d="M180.612 576.601C184.295 623.071 229.306 646.289 267.531 637.978C305.805 630.065 337.529 590.19 361.069 559.404C384.322 528.653 399.391 506.992 403.847 481.774C408.303 456.556 402.146 427.781 405.783 400.641C409.184 373.934 422.33 348.463 429.407 306.746C436.485 265.028 437.493 207.064 419.972 208.8C402.403 210.138 366.019 271.212 323.763 258.578C281.794 245.909 233.619 159.169 195.259 140.397C156.614 121.659 128.12 171.252 138.986 224.125C149.902 277.396 200.799 334.276 207.401 397.378C214.051 460.878 176.929 530.131 180.612 576.601Z" fill="#FF7139"/>
</g>
<defs>
<filter id="filter0_f_2341_3111" x="0.722778" y="0.426147" width="569.4" height="775.145" filterUnits="userSpaceOnUse" color-interpolation-filters="sRGB">
<feFlood flood-opacity="0" result="BackgroundImageFix"/>
<feBlend mode="normal" in="SourceGraphic" in2="BackgroundImageFix" result="shape"/>
<feGaussianBlur stdDeviation="67.965" result="effect1_foregroundBlur_2341_3111"/>
</filter>
</defs>
</svg>
